<?xml version="1.0" encoding="UTF-8" standalone="no"?>
<!-- Created with Inkscape (http://www.inkscape.org/) -->

<svg
   width="185.49355mm"
   height="39.212074mm"
   viewBox="0 0 701.07798 148.20312"
   version="1.1"
   id="svg1"
   sodipodi:docname="white-separated-logo.svg"
   inkscape:version="1.4.3 (0d15f75042, 2025-12-25)"
   xmlns:inkscape="http://www.inkscape.org/namespaces/inkscape"
   xmlns:sodipodi="http://sodipodi.sourceforge.net/DTD/sodipodi-0.dtd"
   xmlns="http://www.w3.org/2000/svg"
   xmlns:svg="http://www.w3.org/2000/svg">
  <sodipodi:namedview
     id="namedview1"
     pagecolor="#ffffff"
     bordercolor="#000000"
     borderopacity="0.25"
     inkscape:showpageshadow="2"
     inkscape:pageopacity="0.0"
     inkscape:pagecheckerboard="0"
     inkscape:deskcolor="#d1d1d1"
     inkscape:document-units="mm"
     inkscape:zoom="2.5261099"
     inkscape:cx="350.73692"
     inkscape:cy="74.224799"
     inkscape:window-width="1920"
     inkscape:window-height="1020"
     inkscape:window-x="0"
     inkscape:window-y="32"
     inkscape:window-maximized="1"
     inkscape:current-layer="g80" />
  <defs
     id="defs1">
    <rect
       x="942.00629"
       y="775.48999"
       width="535.49518"
       height="111.01084"
       id="rect74" />
  </defs>
  <g
     id="layer2"
     transform="translate(-1724.9974,-198.10565)">
    <g
       id="g80"
       style="fill:#ffffff;fill-opacity:1"
       transform="translate(230.39682,-882.64698)">
      <g
         id="g74"
         style="fill:#ffffff;fill-opacity:1"
         transform="translate(1279.6994,407.98206)">
        <path
           id="path72"
           style="fill:#ffffff;fill-opacity:1;stroke:none;stroke-width:0.377953;stroke-dasharray:none;stroke-opacity:1"
           d="m 234.66108,672.77057 c -6.58948,0 -19.75977,0.5586 -19.75977,0.5586 l 0.18555,147.64453 c 16.75227,-0.47064 33.63574,-0.67141 34.11523,-34.67383 0,0 4.70232,0.93164 7.08399,0.93164 16.91845,0 47.16406,-17.25408 47.16406,-56.85742 0,-40.4293 -38.63941,-57.60352 -68.78906,-57.60352 z m -2.01563,6.71094 c 7.8446,0 24.35596,4.12739 23.06445,10.97656 -0.66015,3.50087 -3.91796,10.53711 -3.91796,10.53711 0,0 4.1323,-5.88678 7.41015,-8.31836 4.57123,-3.39103 10.5041,-1.37448 16.73242,5.19532 6.22831,6.56981 8.15953,13.74848 4.77344,17.02929 -3.24883,3.14782 -8.70117,4.72071 -8.70117,4.72071 0,0 5.15833,-0.69258 9.63281,-0.24805 7.41339,0.73651 10.36441,22.93347 2.42383,23.86328 -5.22692,0.61205 -14.72852,-1.49219 -14.72852,-1.49219 0,0 10.50978,3.60263 13.48633,6.83399 5.7019,6.19001 -14.21534,23.83178 -20.94336,19.07812 -3.72629,-2.63279 -8.70664,-10.41257 -9.16211,-11.13086 0.54452,0.86565 7.47786,12.03874 5.03125,15.91797 -3.49531,5.54198 -19.35742,2.48438 -19.35742,2.48438 l 0.55859,16.77734 c 0.39257,11.77707 -7.55944,20.50748 -19.94531,19.57422 l -0.1875,-130.68164 c 0,0 8.41106,-1.11719 13.83008,-1.11719 z" />
        <path
           style="fill:#ffffff;fill-opacity:1;stroke:none;stroke-width:0.436613;stroke-dasharray:none;stroke-opacity:1"
           d="m 222.17051,734.45909 c 0,0 4.49346,-9.62923 8.50508,-13.44999 2.96866,-2.82742 8.7701,-5.37427 11.09208,-2.48615 1.97958,2.46224 -0.69239,7.28001 -3.44566,8.82948 -3.57446,2.01162 -12.05979,6.0299 -12.05979,6.0299 0,0 8.7317,-2.96977 12.05979,-3.66101 3.04503,-0.63244 8.82949,-0.0951 8.82949,3.01495 0,4.01298 -4.93437,6.8913 -8.82949,6.8913 -5.65276,0 -16.1515,-5.16848 -16.1515,-5.16848 z"
           id="path73" />
        <path
           style="fill:#ffffff;fill-opacity:1;stroke:none;stroke-width:0.436613;stroke-dasharray:none;stroke-opacity:1"
           d="m 223.24728,738.98151 c 0,0 9.72138,0.89544 13.99797,3.01495 2.99619,1.48495 5.83563,5.81872 4.09171,8.39878 -1.69266,2.50423 -6.02518,1.59986 -9.04484,-0.64606 -3.76121,-2.79745 -9.04484,-10.76767 -9.04484,-10.76767 z"
           id="path74" />
      </g>
      <path
         d="m 947.28586,861.12223 v -38.4 -26.4 h 8.16 l -0.288,13.152 h 1.632 q 0.576,-3.552 1.824,-6.816 1.248,-3.264 3.36,-5.376 2.208,-2.208 5.568,-2.208 3.744,0 6.816,3.072 3.168,2.976 4.992,8.928 1.92,5.952 1.92,14.88 0,9.12 -1.92,14.976 -1.92,5.76 -4.992,8.544 -3.072,2.784 -6.816,2.784 -2.88,0 -4.992,-1.632 -2.112,-1.728 -3.456,-4.704 -1.344,-3.072 -2.4,-7.008 h -1.728 q 0.672,3.552 1.152,7.104 0.576,3.456 0.864,6.432 0.384,2.976 0.384,4.992 v 7.68 z m 17.28,-21.312 q 1.632,0 3.072,-1.728 1.536,-1.824 2.4,-5.76 0.96,-4.032 0.96,-10.56 0,-6.432 -0.96,-10.368 -0.864,-3.936 -2.304,-5.664 -1.44,-1.824 -2.976,-1.824 -1.632,0 -3.072,1.728 -1.344,1.632 -2.304,4.32 -0.96,2.688 -1.536,5.76 -0.48,3.072 -0.48,5.856 v 1.344 q 0,1.632 0.288,3.84 0.288,2.112 0.768,4.416 0.576,2.304 1.44,4.224 0.864,1.92 2.016,3.168 1.248,1.248 2.688,1.248 z m 25.53592,7.2 v -50.688 h 10.08002 v 50.688 z m 4.896,-57.216 q -3.264,0 -4.896,-1.248 -1.632,-1.344 -1.632,-3.936 0,-2.592 1.632,-3.936 1.728,-1.344 4.896,-1.344 3.36,0 4.992,1.344 1.63202,1.344 1.63202,3.84 0,2.688 -1.72802,4.032 -1.632,1.248 -4.896,1.248 z m 31.96802,58.368 q -5.28,0 -8.832,-2.016 -3.456,-2.112 -5.568,-5.664 -2.016,-3.648 -2.88,-8.352 -0.864,-4.704 -0.864,-9.984 0,-5.472 0.864,-10.368 0.96,-4.896 2.976,-8.64 2.112,-3.744 5.472,-5.856 3.456,-2.208 8.448,-2.208 5.472,0 9.024,2.592 3.552,2.496 5.184,6.528 1.632,4.032 1.248,8.64 l -9.6,1.248 q 0.096,-2.88 -0.576,-5.376 -0.576,-2.496 -2.016,-3.936 -1.344,-1.44 -3.552,-1.44 -1.92,0 -3.264,1.248 -1.344,1.152 -2.304,3.456 -0.864,2.208 -1.344,5.664 -0.384,3.36 -0.384,7.776 0,5.856 0.768,10.08 0.768,4.224 2.496,6.432 1.728,2.208 4.416,2.208 2.496,0 4.032,-1.728 1.536,-1.824 2.208,-4.608 0.768,-2.784 0.576,-6.048 l 9.504,0.672 q 0.384,3.36 -0.288,6.816 -0.576,3.456 -2.4,6.336 -1.824,2.88 -5.184,4.704 -3.264,1.824 -8.16,1.824 z m 38.6881,0.096 q -5.856,0 -9.696,-3.168 -3.84,-3.168 -5.76,-9.12 -1.824,-6.048 -1.824,-14.496 0,-9.024 2.016,-14.784 2.016,-5.856 5.856,-8.736 3.936,-2.88 9.6,-2.88 5.664,0 9.504,2.88 3.84,2.784 5.76,8.544 2.016,5.76 2.016,14.688 0,8.928 -2.016,14.976 -2.016,6.048 -5.952,9.12 -3.84,2.976 -9.504,2.976 z m 0.096,-8.064 q 2.304,0 3.936,-2.016 1.632,-2.016 2.4,-6.144 0.864,-4.128 0.864,-10.464 0,-6.624 -0.864,-10.656 -0.864,-4.032 -2.496,-5.856 -1.632,-1.824 -3.84,-1.824 -2.208,0 -3.84,1.824 -1.632,1.824 -2.496,5.856 -0.864,4.032 -0.864,10.752 0,9.408 1.824,14.016 1.824,4.512 5.376,4.512 z m 43.9681,20.928 v -38.4 -26.4 h 8.16 l -0.288,13.152 h 1.632 q 0.576,-3.552 1.824,-6.816 1.248,-3.264 3.36,-5.376 2.208,-2.208 5.568,-2.208 3.744,0 6.816,3.072 3.168,2.976 4.992,8.928 1.92,5.952 1.92,14.88 0,9.12 -1.92,14.976 -1.92,5.76 -4.992,8.544 -3.072,2.784 -6.816,2.784 -2.88,0 -4.992,-1.632 -2.112,-1.728 -3.456,-4.704 -1.344,-3.072 -2.4,-7.008 h -1.728 q 0.672,3.552 1.152,7.104 0.576,3.456 0.864,6.432 0.384,2.976 0.384,4.992 v 7.68 z m 17.28,-21.312 q 1.632,0 3.072,-1.728 1.536,-1.824 2.4,-5.76 0.96,-4.032 0.96,-10.56 0,-6.432 -0.96,-10.368 -0.864,-3.936 -2.304,-5.664 -1.44,-1.824 -2.976,-1.824 -1.632,0 -3.072,1.728 -1.344,1.632 -2.304,4.32 -0.96,2.688 -1.536,5.76 -0.48,3.072 -0.48,5.856 v 1.344 q 0,1.632 0.288,3.84 0.288,2.112 0.768,4.416 0.576,2.304 1.44,4.224 0.864,1.92 2.016,3.168 1.248,1.248 2.688,1.248 z m 33.888,8.256 q -2.784,0 -5.376,-1.344 -2.496,-1.344 -4.128,-4.224 -1.536,-2.88 -1.536,-7.296 0,-3.456 1.056,-5.952 1.056,-2.592 2.976,-4.416 2.016,-1.92 4.512,-3.264 2.592,-1.44 5.568,-2.784 2.496,-1.152 4.32,-2.112 1.92,-1.056 2.976,-2.592 1.056,-1.536 1.056,-4.128 0,-3.072 -1.44,-4.8 -1.344,-1.824 -4.128,-1.824 -2.208,0 -3.648,1.248 -1.44,1.248 -2.016,3.648 -0.48,2.304 -0.192,5.664 l -9.504,-0.768 q -0.384,-4.032 0.384,-7.392 0.864,-3.36 2.88,-5.664 2.016,-2.4 5.184,-3.648 3.168,-1.344 7.488,-1.344 5.472,0 8.736,2.112 3.264,2.112 4.704,6.24 1.44,4.032 1.44,10.176 v 14.208 q 0.096,2.688 0.192,6.144 0.192,3.456 0.48,6.912 0.288,3.456 0.576,6.144 h -8.928 q -0.384,-3.168 -0.576,-6.24 -0.192,-3.168 -0.384,-6.24 h -1.344 q -0.864,4.608 -2.4,7.68 -1.536,2.976 -3.744,4.416 -2.208,1.44 -5.184,1.44 z m 3.456,-8.544 q 1.536,0 2.688,-0.768 1.152,-0.768 2.112,-2.112 1.056,-1.44 1.728,-3.36 0.768,-2.016 1.44,-4.32 v -10.56 l 2.976,-0.672 q -0.864,1.536 -2.4,2.592 -1.44,1.056 -3.264,2.016 -1.728,0.864 -3.552,1.824 -1.824,0.864 -3.36,2.112 -1.44,1.248 -2.4,2.976 -0.96,1.728 -0.96,4.224 0,2.976 1.44,4.512 1.44,1.536 3.552,1.536 z m 28.2239,7.488 v -33.024 -17.664 h 8.352 l -0.288,14.016 h 1.632 q 0.864,-5.472 2.4,-8.832 1.632,-3.36 3.936,-4.896 2.304,-1.536 5.376,-1.536 5.76,0 8.448,4.608 2.688,4.608 2.688,13.728 v 33.6 h -10.08 v -31.872 q 0,-5.76 -1.152,-8.352 -1.056,-2.688 -3.36,-2.688 -2.208,0 -3.936,2.208 -1.728,2.208 -2.784,5.952 -0.96,3.648 -1.152,8.16 v 26.592 z m 56.16,0.768 q -5.856,0 -9.12,-3.36 -3.168,-3.456 -3.168,-10.656 v -29.28 h -4.704 v -8.064 h 2.112 q 2.784,0 3.936,-0.96 1.248,-0.96 1.536,-3.168 l 0.768,-6.048 h 6.24 v 10.08 h 7.392 v 8.352 h -7.392 v 27.36 q 0,3.072 0.96,4.608 0.96,1.536 3.072,1.536 0.576,0 1.536,-0.192 0.96,-0.288 2.208,-0.576 v 9.6 q -1.536,0.384 -2.88,0.576 -1.248,0.192 -2.496,0.192 z m 13.2479,-0.768 v -30.144 -20.544 h 8.544 l -0.192,17.376 h 1.728 q 0.48,-6.144 2.112,-10.176 1.632,-4.128 4.128,-6.144 2.592,-2.112 5.568,-2.112 0.576,0 1.056,0.096 0.576,0 1.152,0.192 l -0.48,11.328 q -0.384,-0.096 -0.96,-0.096 -0.48,-0.096 -0.864,-0.096 -2.688,0 -5.184,2.304 -2.4,2.208 -4.128,6.24 -1.728,4.032 -2.016,9.408 v 22.368 z m 43.68,14.784 q -3.072,0 -6.144,-0.768 -2.976,-0.672 -5.472,-2.208 -2.4,-1.44 -3.936,-3.552 l 4.704,-7.296 q 1.92,2.592 4.608,3.744 2.688,1.248 5.472,1.248 3.552,0 6.048,-2.016 2.592,-1.92 3.936,-6.048 1.44,-4.128 1.44,-10.464 l 0.384,-5.856 h -1.632 q -0.768,5.472 -2.592,8.928 -1.824,3.36 -4.32,4.992 -2.4,1.536 -5.376,1.536 -3.36,0 -5.664,-2.016 -2.208,-2.016 -3.456,-6.144 -1.152,-4.128 -1.152,-10.464 v -29.088 h 10.176 v 26.496 q 0,6.24 0.96,9.12 1.056,2.784 3.456,2.784 1.536,0 2.784,-1.152 1.344,-1.152 2.304,-3.264 1.056,-2.208 1.632,-4.992 0.576,-2.784 0.672,-6.048 v -22.944 h 10.08 v 38.784 q 0,4.512 -0.672,8.544 -0.672,4.032 -2.112,7.392 -1.344,3.36 -3.648,5.76 -2.208,2.4 -5.376,3.648 -3.072,1.344 -7.104,1.344 z"
         id="text74"
         style="font-weight:500;font-stretch:condensed;font-size:96px;line-height:94%;font-family:'Bricolage Grotesque 24pt Condensed';-inkscape-font-specification:'Bricolage Grotesque 24pt Condensed, Medium Condensed';text-orientation:upright;white-space:pre;stroke-width:0.377953"
         transform="matrix(1.4586079,0,0,1.4586079,263.65645,-40.846161)"
         aria-label="pico pantry" />
    </g>
  </g>
</svg>
